<?xml version="1.0" encoding="UTF-8" standalone="no"?>
<svg
   xmlns:dc="http://purl.org/dc/elements/1.1/"
   xmlns:cc="http://creativecommons.org/ns#"
   xmlns:rdf="http://www.w3.org/1999/02/22-rdf-syntax-ns#"
   xmlns:svg="http://www.w3.org/2000/svg"
   xmlns="http://www.w3.org/2000/svg"
   width="300"
   height="50"
   viewBox="0 0 300 50.000001"
   id="svg2"
   version="1.1">
  <defs
     id="defs4" />
  <metadata
     id="metadata7">
    <rdf:RDF>
      <cc:Work
         rdf:about="">
        <dc:format>image/svg+xml</dc:format>
        <dc:type
           rdf:resource="http://purl.org/dc/dcmitype/StillImage" />
        <dc:title></dc:title>
      </cc:Work>
    </rdf:RDF>
  </metadata>
  <g
     id="layer1"
     transform="translate(0,-1002.3621)">
    <g
       style="font-style:normal;font-weight:normal;font-size:17.5px;line-height:125%;font-family:sans-serif;letter-spacing:0px;word-spacing:0px;fill:#000000;fill-opacity:1;stroke:none;stroke-width:1px;stroke-linecap:butt;stroke-linejoin:miter;stroke-opacity:1"
       id="text3336">
      <g
         style="font-style:normal;font-weight:normal;font-size:17.5px;line-height:125%;font-family:sans-serif;letter-spacing:0px;word-spacing:0px;fill:#000000;fill-opacity:1;stroke:none;stroke-width:1px;stroke-linecap:butt;stroke-linejoin:miter;stroke-opacity:1"
         id="text3351">
        <path
           d="m 42.865197,1027.6686 q 0,3.3935 -1.049805,6.1767 -1.02539,2.7832 -2.70996,4.5899 -1.757813,1.9043 -3.979493,2.8808 -2.221679,0.9766 -4.760742,0.9766 -2.34375,0 -3.979492,-0.5127 -1.635742,-0.4883 -3.344727,-1.3916 l 0,11.4258 -8.789062,0 0,-37.4756 8.789062,0 0,2.8564 q 2.026368,-1.6113 4.125977,-2.6123 2.124023,-1.0009 4.882812,-1.0009 5.126954,0 7.958985,3.7597 2.856445,3.7598 2.856445,10.3272 z m -9.057617,0.1709 q 0,-4.0039 -1.367188,-5.8106 -1.367187,-1.8066 -4.321289,-1.8066 -1.245117,0 -2.563476,0.3906 -1.31836,0.3662 -2.514649,1.0742 l 0,13.794 q 0.878907,0.3418 1.879883,0.4394 1.000977,0.098 1.977539,0.098 3.491211,0 5.200196,-2.0264 1.708984,-2.0508 1.708984,-6.1523 z"
           style="font-style:normal;font-variant:normal;font-weight:bold;font-stretch:normal;font-size:50px;font-family:sans-serif;-inkscape-font-specification:'sans-serif Bold'"
           id="path3356" />
        <path
           d="m 77.240197,1028.0592 q 0,6.7627 -3.955078,10.6689 -3.930664,3.8819 -11.05957,3.8819 -7.128907,0 -11.083985,-3.8819 -3.930664,-3.9062 -3.930664,-10.6689 0,-6.8115 3.955078,-10.6934 3.979493,-3.8818 11.059571,-3.8818 7.177734,0 11.083984,3.9063 3.930664,3.9062 3.930664,10.6689 z m -10.81543,6.665 q 0.854493,-1.0498 1.269532,-2.5146 0.439453,-1.4893 0.439453,-4.1016 0,-2.417 -0.439453,-4.0527 -0.439453,-1.6357 -1.220703,-2.6123 -0.78125,-1.001 -1.879883,-1.416 -1.098633,-0.4151 -2.368164,-0.4151 -1.269532,0 -2.270508,0.3418 -0.976563,0.3418 -1.879883,1.3672 -0.805664,0.9522 -1.293945,2.6123 -0.463867,1.6602 -0.463867,4.1748 0,2.2461 0.415039,3.9063 0.415039,1.6357 1.220703,2.6367 0.78125,0.9521 1.855469,1.3916 1.098632,0.4395 2.490234,0.4395 1.196289,0 2.270508,-0.3907 1.098633,-0.415 1.855468,-1.3672 z"
           style="font-style:normal;font-variant:normal;font-weight:bold;font-stretch:normal;font-size:50px;font-family:sans-serif;-inkscape-font-specification:'sans-serif Bold'"
           id="path3358" />
        <path
           d="m 103.4609,1022.7125 -0.78125,0 q -0.56152,-0.1953 -1.80664,-0.2929 -1.245118,-0.098 -2.075196,-0.098 -1.879882,0 -3.320312,0.2441 -1.44043,0.2442 -3.100586,0.8301 l 0,18.3594 -8.789063,0 0,-27.417 8.789063,0 0,4.0283 q 2.905273,-2.4902 5.053711,-3.2959 2.148437,-0.8301 3.955073,-0.8301 0.46387,0 1.04981,0.024 0.58594,0.024 1.02539,0.073 l 0,8.374 z"
           style="font-style:normal;font-variant:normal;font-weight:bold;font-stretch:normal;font-size:50px;font-family:sans-serif;-inkscape-font-specification:'sans-serif Bold'"
           id="path3360" />
        <path
           d="m 126.01949,1041.5114 q -1.41601,0.3662 -3.00293,0.5615 -1.58691,0.2197 -3.88183,0.2197 -5.12695,0 -7.6416,-2.0752 -2.49024,-2.0752 -2.49024,-7.1045 l 0,-12.8174 -3.61328,0 0,-5.957 3.61328,0 0,-7.8369 8.78906,0 0,7.8369 8.22754,0 0,5.957 -8.22754,0 0,9.7168 q 0,1.4405 0.0244,2.5147 0.0244,1.0742 0.39062,1.9287 0.3418,0.8545 1.19629,1.3672 0.87891,0.4883 2.53907,0.4883 0.68359,0 1.78222,-0.293 1.12305,-0.293 1.5625,-0.5371 l 0.73242,0 0,6.0303 z"
           style="font-style:normal;font-variant:normal;font-weight:bold;font-stretch:normal;font-size:50px;font-family:sans-serif;-inkscape-font-specification:'sans-serif Bold'"
           id="path3362" />
        <path
           d="m 149.01754,1010.2125 -0.65918,0 q -0.58594,-0.1709 -1.53808,-0.3906 -0.92774,-0.2197 -2.00196,-0.2197 -2.58789,0 -3.51562,0.9277 -0.90332,0.9277 -0.90332,3.5889 l 0,0.2197 6.78711,0 0,5.957 -6.49414,0 0,21.46 -8.78907,0 0,-21.46 -3.75976,0 0,-5.957 3.75976,0 0,-0.7568 q 0,-5.0293 2.66114,-7.544 2.68554,-2.5146 8.10546,-2.5146 1.95313,0 3.54004,0.1465 1.58692,0.122 2.80762,0.3418 l 0,6.2011 z"
           style="font-style:normal;font-variant:normal;font-weight:bold;font-stretch:normal;font-size:50px;font-family:sans-serif;-inkscape-font-specification:'sans-serif Bold'"
           id="path3364" />
        <path
           d="m 180.3652,1028.0592 q 0,6.7627 -3.95508,10.6689 -3.93067,3.8819 -11.05957,3.8819 -7.12891,0 -11.08399,-3.8819 -3.93066,-3.9062 -3.93066,-10.6689 0,-6.8115 3.95508,-10.6934 3.97949,-3.8818 11.05957,-3.8818 7.17773,0 11.08398,3.9063 3.93067,3.9062 3.93067,10.6689 z m -10.81543,6.665 q 0.85449,-1.0498 1.26953,-2.5146 0.43945,-1.4893 0.43945,-4.1016 0,-2.417 -0.43945,-4.0527 -0.43945,-1.6357 -1.2207,-2.6123 -0.78125,-1.001 -1.87989,-1.416 -1.09863,-0.4151 -2.36816,-0.4151 -1.26953,0 -2.27051,0.3418 -0.97656,0.3418 -1.87988,1.3672 -0.80567,0.9522 -1.29395,2.6123 -0.46386,1.6602 -0.46386,4.1748 0,2.2461 0.41503,3.9063 0.41504,1.6357 1.22071,2.6367 0.78125,0.9521 1.85547,1.3916 1.09863,0.4395 2.49023,0.4395 1.19629,0 2.27051,-0.3907 1.09863,-0.415 1.85547,-1.3672 z"
           style="font-style:normal;font-variant:normal;font-weight:bold;font-stretch:normal;font-size:50px;font-family:sans-serif;-inkscape-font-specification:'sans-serif Bold'"
           id="path3366" />
        <path
           d="m 195.50192,1041.7555 -8.78907,0 0,-37.9883 8.78907,0 0,37.9883 z"
           style="font-style:normal;font-variant:normal;font-weight:bold;font-stretch:normal;font-size:50px;font-family:sans-serif;-inkscape-font-specification:'sans-serif Bold'"
           id="path3368" />
        <path
           d="m 212.59176,1041.7555 -8.78906,0 0,-27.417 8.78906,0 0,27.417 z m 0.24414,-31.3232 -9.27734,0 0,-6.6651 9.27734,0 0,6.6651 z"
           style="font-style:normal;font-variant:normal;font-weight:bold;font-stretch:normal;font-size:50px;font-family:sans-serif;-inkscape-font-specification:'sans-serif Bold'"
           id="path3370" />
        <path
           d="m 248.91988,1028.0592 q 0,6.7627 -3.95507,10.6689 -3.93067,3.8819 -11.05957,3.8819 -7.12891,0 -11.08399,-3.8819 -3.93066,-3.9062 -3.93066,-10.6689 0,-6.8115 3.95508,-10.6934 3.97949,-3.8818 11.05957,-3.8818 7.17773,0 11.08398,3.9063 3.93066,3.9062 3.93066,10.6689 z m -10.81543,6.665 q 0.8545,-1.0498 1.26954,-2.5146 0.43945,-1.4893 0.43945,-4.1016 0,-2.417 -0.43945,-4.0527 -0.43946,-1.6357 -1.22071,-2.6123 -0.78125,-1.001 -1.87988,-1.416 -1.09863,-0.4151 -2.36816,-0.4151 -1.26954,0 -2.27051,0.3418 -0.97656,0.3418 -1.87988,1.3672 -0.80567,0.9522 -1.29395,2.6123 -0.46387,1.6602 -0.46387,4.1748 0,2.2461 0.41504,3.9063 0.41504,1.6357 1.22071,2.6367 0.78125,0.9521 1.85546,1.3916 1.09864,0.4395 2.49024,0.4395 1.19629,0 2.27051,-0.3907 1.09863,-0.415 1.85546,-1.3672 z"
           style="font-style:normal;font-variant:normal;font-weight:bold;font-stretch:normal;font-size:50px;font-family:sans-serif;-inkscape-font-specification:'sans-serif Bold'"
           id="path3372" />
      </g>
    </g>
  </g>
</svg>
