<?xml version="1.0" encoding="UTF-8" standalone="no"?>
<svg
   xmlns:dc="http://purl.org/dc/elements/1.1/"
   xmlns:cc="http://creativecommons.org/ns#"
   xmlns:rdf="http://www.w3.org/1999/02/22-rdf-syntax-ns#"
   xmlns:svg="http://www.w3.org/2000/svg"
   xmlns="http://www.w3.org/2000/svg"
   xmlns:sodipodi="http://sodipodi.sourceforge.net/DTD/sodipodi-0.dtd"
   xmlns:inkscape="http://www.inkscape.org/namespaces/inkscape"
   version="1.1"
   id="svg2"
   viewBox="0 0 250 50.000001"
   height="50"
   width="250"
   inkscape:version="0.91 r13725"
   sodipodi:docname="projects.svg">
  <sodipodi:namedview
     pagecolor="#ffffff"
     bordercolor="#666666"
     borderopacity="1"
     objecttolerance="10"
     gridtolerance="10"
     guidetolerance="10"
     inkscape:pageopacity="0"
     inkscape:pageshadow="2"
     inkscape:window-width="1600"
     inkscape:window-height="847"
     id="namedview3439"
     showgrid="false"
     borderlayer="true"
     inkscape:showpageshadow="false"
     inkscape:zoom="0.72"
     inkscape:cx="175.69444"
     inkscape:cy="25"
     inkscape:window-x="-8"
     inkscape:window-y="-8"
     inkscape:window-maximized="1"
     inkscape:current-layer="svg2" />
  <defs
     id="defs4" />
  <metadata
     id="metadata7">
    <rdf:RDF>
      <cc:Work
         rdf:about="">
        <dc:format>image/svg+xml</dc:format>
        <dc:type
           rdf:resource="http://purl.org/dc/dcmitype/StillImage" />
        <dc:title></dc:title>
      </cc:Work>
    </rdf:RDF>
  </metadata>
  <g
     transform="translate(0,-1002.3621)"
     id="layer1">
    <g
       id="text3336"
       style="font-style:normal;font-weight:normal;font-size:17.5px;line-height:125%;font-family:sans-serif;letter-spacing:0px;word-spacing:0px;fill:#000000;fill-opacity:1;stroke:none;stroke-width:1px;stroke-linecap:butt;stroke-linejoin:miter;stroke-opacity:1">
      <g
         id="text3351"
         style="font-style:normal;font-weight:normal;font-size:17.5px;line-height:125%;font-family:sans-serif;letter-spacing:0px;word-spacing:0px;fill:#000000;fill-opacity:1;stroke:none;stroke-width:1px;stroke-linecap:butt;stroke-linejoin:miter;stroke-opacity:1">
        <g
           id="text3374"
           style="font-style:normal;font-weight:normal;font-size:17.5px;line-height:125%;font-family:sans-serif;letter-spacing:0px;word-spacing:0px;fill:#000000;fill-opacity:1;stroke:none;stroke-width:1px;stroke-linecap:butt;stroke-linejoin:miter;stroke-opacity:1">
          <path
             id="path3379"
             style="font-style:normal;font-variant:normal;font-weight:bold;font-stretch:normal;font-size:50px;font-family:sans-serif;-inkscape-font-specification:'sans-serif Bold'"
             d="m 33.773825,1027.1635 q 0,3.3935 -1.049805,6.1767 -1.02539,2.7832 -2.709961,4.5899 -1.757812,1.9043 -3.979492,2.8808 -2.22168,0.9766 -4.760742,0.9766 -2.34375,0 -3.979492,-0.5127 -1.635742,-0.4883 -3.344727,-1.3916 l 0,11.4258 -8.7890623,0 0,-37.4756 8.7890623,0 0,2.8564 q 2.026367,-1.6113 4.125977,-2.6123 2.124023,-1.001 4.882812,-1.001 5.126953,0 7.958985,3.7598 2.856445,3.7598 2.856445,10.3272 z m -9.057617,0.1709 q 0,-4.004 -1.367188,-5.8106 -1.367187,-1.8066 -4.321289,-1.8066 -1.245117,0 -2.563476,0.3906 -1.31836,0.3662 -2.514649,1.0742 l 0,13.794 q 0.878906,0.3417 1.879883,0.4394 1.000977,0.098 1.977539,0.098 3.491211,0 5.200195,-2.0264 1.708985,-2.0508 1.708985,-6.1523 z"
             inkscape:connector-curvature="0" />
          <path
             id="path3381"
             style="font-style:normal;font-variant:normal;font-weight:bold;font-stretch:normal;font-size:50px;font-family:sans-serif;-inkscape-font-specification:'sans-serif Bold'"
             d="m 59.994528,1022.2074 -0.78125,0 q -0.561523,-0.1953 -1.806641,-0.293 -1.245117,-0.098 -2.075195,-0.098 -1.879883,0 -3.320312,0.2441 -1.44043,0.2442 -3.100586,0.8301 l 0,18.3594 -8.789063,0 0,-27.417 8.789063,0 0,4.0283 q 2.905273,-2.4902 5.053711,-3.2959 2.148437,-0.8301 3.955078,-0.8301 0.463867,0 1.049804,0.024 0.585938,0.024 1.025391,0.073 l 0,8.374 z"
             inkscape:connector-curvature="0" />
          <path
             id="path3383"
             style="font-style:normal;font-variant:normal;font-weight:bold;font-stretch:normal;font-size:50px;font-family:sans-serif;-inkscape-font-specification:'sans-serif Bold'"
             d="m 93.051169,1027.5541 q 0,6.7627 -3.955078,10.6689 -3.930665,3.8819 -11.059571,3.8819 -7.128906,0 -11.083984,-3.8819 -3.930664,-3.9062 -3.930664,-10.6689 0,-6.8115 3.955078,-10.6934 3.979492,-3.8818 11.05957,-3.8818 7.177735,0 11.083985,3.9062 3.930664,3.9063 3.930664,10.669 z m -10.81543,6.665 q 0.854492,-1.0498 1.269531,-2.5146 0.439453,-1.4893 0.439453,-4.1016 0,-2.417 -0.439453,-4.0527 -0.439453,-1.6358 -1.220703,-2.6123 -0.78125,-1.001 -1.879883,-1.416 -1.098633,-0.4151 -2.368164,-0.4151 -1.269531,0 -2.270508,0.3418 -0.976562,0.3418 -1.879882,1.3672 -0.805664,0.9521 -1.293946,2.6123 -0.463867,1.6602 -0.463867,4.1748 0,2.2461 0.415039,3.9063 0.415039,1.6357 1.220703,2.6367 0.78125,0.9521 1.855469,1.3916 1.098633,0.4394 2.490234,0.4394 1.196289,0 2.270508,-0.3906 1.098633,-0.415 1.855469,-1.3672 z"
             inkscape:connector-curvature="0" />
          <path
             id="path3385"
             style="font-style:normal;font-variant:normal;font-weight:bold;font-stretch:normal;font-size:50px;font-family:sans-serif;-inkscape-font-specification:'sans-serif Bold'"
             d="m 111.26406,1041.7386 q 0,4.6387 -2.85645,7.2266 -2.85644,2.6123 -7.34863,2.6123 -2.392577,0 -4.370116,-0.2197 -1.953125,-0.1953 -2.856445,-0.4151 l 0,-6.2988 0.683593,0 q 0.732422,0.2442 1.831055,0.4151 1.098633,0.1709 1.733399,0.1709 2.539064,0 3.466794,-1.5137 0.92774,-1.5137 0.92774,-4.9805 l 0,-18.9453 -5.200199,0 0,-5.957 13.989259,0 0,27.9052 z m 0,-31.8115 -9.35059,0 0,-6.665 9.35059,0 0,6.665 z"
             inkscape:connector-curvature="0" />
          <path
             id="path3387"
             style="font-style:normal;font-variant:normal;font-weight:bold;font-stretch:normal;font-size:50px;font-family:sans-serif;-inkscape-font-specification:'sans-serif Bold'"
             d="m 146.51797,1029.1654 -20.11719,0 q 0.19531,3.2227 2.4414,4.9316 2.27051,1.709 6.66504,1.709 2.78321,0 5.39551,-1.0009 2.61231,-1.001 4.12598,-2.1485 l 0.97656,0 0,7.0557 q -2.97852,1.1963 -5.61523,1.7334 -2.63672,0.5371 -5.83497,0.5371 -8.25195,0 -12.64648,-3.7109 -4.39453,-3.711 -4.39453,-10.5713 0,-6.7871 4.15039,-10.7422 4.1748,-3.9795 11.42578,-3.9795 6.68945,0 10.05859,3.3935 3.36915,3.3692 3.36915,9.7168 l 0,3.0762 z m -8.74024,-5.1514 q -0.0732,-2.7588 -1.36719,-4.1504 -1.29394,-1.3916 -4.02832,-1.3916 -2.53906,0 -4.1748,1.3184 -1.63574,1.3184 -1.83106,4.2236 l 11.40137,0 z"
             inkscape:connector-curvature="0" />
          <path
             id="path3389"
             style="font-style:normal;font-variant:normal;font-weight:bold;font-stretch:normal;font-size:50px;font-family:sans-serif;-inkscape-font-specification:'sans-serif Bold'"
             d="m 167.00136,1041.9828 q -3.58886,0 -6.56738,-0.8545 -2.9541,-0.8545 -5.15137,-2.6367 -2.17285,-1.7822 -3.36914,-4.4922 -1.19629,-2.71 -1.19629,-6.3477 0,-3.833 1.26954,-6.6162 1.29394,-2.7832 3.58886,-4.6142 2.22168,-1.7334 5.12696,-2.5391 2.90527,-0.8057 6.03027,-0.8057 2.80762,0 5.17578,0.6104 2.36816,0.6103 4.41895,1.5869 l 0,7.4951 -1.24512,0 q -0.5127,-0.4394 -1.24512,-1.0254 -0.70801,-0.5859 -1.75781,-1.1474 -1.00098,-0.5371 -2.19727,-0.8789 -1.19629,-0.3662 -2.7832,-0.3662 -3.51562,0 -5.41992,2.246 -1.87988,2.2217 -1.87988,6.0547 0,3.9551 1.92871,6.0059 1.95312,2.0508 5.51757,2.0508 1.66016,0 2.97852,-0.3662 1.34277,-0.3907 2.22168,-0.9034 0.83008,-0.4882 1.46484,-1.0253 0.63477,-0.5372 1.17188,-1.0499 l 1.24512,0 0,7.4952 q -2.0752,0.9765 -4.34571,1.5381 -2.24609,0.5859 -4.98047,0.5859 z"
             inkscape:connector-curvature="0" />
          <path
             id="path3391"
             style="font-style:normal;font-variant:normal;font-weight:bold;font-stretch:normal;font-size:50px;font-family:sans-serif;-inkscape-font-specification:'sans-serif Bold'"
             d="m 199.64297,1041.0062 q -1.41602,0.3662 -3.00293,0.5615 -1.58692,0.2198 -3.88184,0.2198 -5.12695,0 -7.6416,-2.0752 -2.49024,-2.0752 -2.49024,-7.1045 l 0,-12.8174 -3.61328,0 0,-5.957 3.61328,0 0,-7.8369 8.78907,0 0,7.8369 8.22754,0 0,5.957 -8.22754,0 0,9.7168 q 0,1.4404 0.0244,2.5147 0.0244,1.0742 0.39063,1.9287 0.34179,0.8545 1.19628,1.3671 0.87891,0.4883 2.53907,0.4883 0.68359,0 1.78222,-0.2929 1.12305,-0.293 1.5625,-0.5371 l 0.73243,0 0,6.0302 z"
             inkscape:connector-curvature="0" />
          <path
             id="path3393"
             style="font-style:normal;font-variant:normal;font-weight:bold;font-stretch:normal;font-size:50px;font-family:sans-serif;-inkscape-font-specification:'sans-serif Bold'"
             d="m 228.6957,1032.559 q 0,4.248 -3.80859,6.8603 -3.8086,2.5879 -10.42481,2.5879 -3.66211,0 -6.64062,-0.6836 -2.97852,-0.6836 -4.78516,-1.5137 l 0,-7.2265 0.80566,0 q 0.65918,0.4638 1.51368,1.0254 0.8789,0.5371 2.46582,1.1718 1.36718,0.5616 3.10058,0.9766 1.7334,0.3906 3.71094,0.3906 2.58789,0 3.83301,-0.5615 1.24511,-0.5859 1.24511,-1.709 0,-1.001 -0.73242,-1.4404 -0.73242,-0.4639 -2.7832,-0.8789 -0.97656,-0.2197 -2.66113,-0.4639 -1.66016,-0.2685 -3.02735,-0.6347 -3.73535,-0.9766 -5.54199,-3.0274 -1.80664,-2.0752 -1.80664,-5.1514 0,-3.955 3.73535,-6.5673 3.75977,-2.6368 10.25391,-2.6368 3.07617,0 5.88379,0.6348 2.83203,0.6104 4.41894,1.3184 l 0,6.9336 -0.75683,0 q -1.95313,-1.3428 -4.46778,-2.1729 -2.49023,-0.8545 -5.05371,-0.8545 -2.12402,0 -3.58886,0.586 -1.44043,0.5859 -1.44043,1.6601 0,0.9766 0.65918,1.4893 0.65917,0.5127 3.10058,1.0254 1.34277,0.2685 2.88086,0.5371 1.5625,0.2441 3.125,0.6347 3.4668,0.9034 5.12695,2.8565 1.66016,1.9287 1.66016,4.834 z"
             inkscape:connector-curvature="0" />
        </g>
      </g>
    </g>
  </g>
</svg>
